<?xml version="1.0" standalone="no"?>
<!DOCTYPE svg PUBLIC "-//W3C//DTD SVG 20010904//EN"
 "http://www.w3.org/TR/2001/REC-SVG-20010904/DTD/svg10.dtd">
<svg version="1.0" xmlns="http://www.w3.org/2000/svg"
 width="1000.000000pt" height="1000.000000pt" viewBox="0 0 1000.000000 1000.000000"
 preserveAspectRatio="xMidYMid meet">
<metadata>
Created by potrace 1.14, written by Peter Selinger 2001-2017
</metadata>
<g transform="translate(0.000000,1000.000000) scale(0.100000,-0.100000)"
fill="#000000" stroke="none">
<path d="M0 5000 l0 -5000 5000 0 5000 0 0 5000 0 5000 -5000 0 -5000 0 0
-5000z m3658 2491 c368 -69 584 -217 707 -484 62 -135 95 -314 95 -521 0 -290
-64 -494 -201 -639 -81 -87 -153 -132 -275 -172 l-93 -31 72 -18 c324 -82 530
-322 598 -696 21 -113 18 -478 -5 -600 -93 -506 -392 -786 -906 -850 -51 -6
-344 -10 -732 -10 l-648 0 0 2026 0 2025 638 -4 c599 -4 644 -5 750 -26z
m3020 -790 c368 -69 584 -217 707 -484 62 -135 95 -314 95 -521 0 -290 -64
-494 -201 -639 -81 -87 -153 -132 -275 -172 l-93 -31 72 -18 c324 -82 530
-322 598 -696 21 -113 18 -478 -5 -600 -93 -506 -392 -786 -906 -850 -51 -6
-344 -10 -732 -10 l-648 0 0 2026 0 2025 638 -4 c599 -4 644 -5 750 -26z"/>
<path d="M3020 6436 l0 -566 188 0 c212 0 292 13 389 60 152 75 216 227 217
520 1 216 -29 322 -117 413 -92 94 -207 126 -484 134 l-193 5 0 -566z"/>
<path d="M3020 4671 l0 -681 169 0 c337 0 479 45 571 184 76 112 105 247 104
491 -2 325 -61 491 -212 592 -110 74 -164 86 -414 91 l-218 4 0 -681z"/>
<path d="M6040 5646 l0 -566 188 0 c212 0 292 13 389 60 152 75 216 227 217
520 1 216 -29 322 -117 413 -92 94 -207 126 -484 134 l-193 5 0 -566z"/>
<path d="M6040 3881 l0 -681 169 0 c337 0 479 45 571 184 76 112 105 247 104
491 -2 325 -61 491 -212 592 -110 74 -164 86 -414 91 l-218 4 0 -681z"/>
</g>
</svg>
